# xmcd
#
# Track frame offsets: 
#        150
#        16865
#        34558
#        54492
#        71178
#        89691
#        110338
#        125358
#        143370
#        146775
#        168194
#        186512
#        193098
#
# Disc length: 2900 seconds
#
# Revision: 0
# Processed by: cddbd v1.5.2PL0 Copyright (c) Steve Scherf et al.
# Submitted via: ExactAudioCopyFreeDBPlugin 1.0
#
DISCID=b70b520d
DTITLE=MIHIRO - green GO light
DYEAR=2012
DGENRE=R&B
TTITLE0=Now&Forever 
TTITLE1=Missing you
TTITLE2=green GO light
TTITLE3=STEREO CANNON
TTITLE4=TIME
TTITLE5=Beautiful Fighter
TTITLE6=Fly with my AJ
TTITLE7=レッドゾーン
TTITLE8=interlude~初心
TTITLE9=Only One
TTITLE10=Lost In Your Eyes
TTITLE11=interlude~Baby I Love U (プリプロダクション)
TTITLE12=Baby I Love U
EXTD=
EXTT0=
EXTT1=
EXTT2=
EXTT3=
EXTT4=
EXTT5=
EXTT6=
EXTT7=
EXTT8=
EXTT9=
EXTT10=
EXTT11=
EXTT12=
PLAYORDER=
